<svg width="18" height="20" viewBox="0 0 18 20" fill="none" xmlns="http://www.w3.org/2000/svg">
<path d="M11.7401 13.3163L11.3206 13.5795C11.3206 13.5795 10.3236 14.2052 8.7494 11.4043C7.17517 8.60361 8.17217 7.97795 8.17217 7.97795L8.4363 7.81219C9.08704 7.40387 9.35563 6.55081 9.06828 5.80504L8.4806 4.27954C8.12499 3.35651 7.07967 2.98056 6.2743 3.48596L4.82878 4.39307C4.42944 4.64367 4.10912 5.01874 4.0137 5.50095C3.76958 6.7346 3.62496 9.48575 5.75838 13.2814C8.02077 17.3064 10.8843 18.1721 12.0983 18.3569C12.4823 18.4154 12.8593 18.2969 13.192 18.0881L14.5002 17.2672C15.3833 16.713 15.5059 15.4089 14.7443 14.6703L13.5584 13.5202C13.0584 13.0352 12.3199 12.9524 11.7401 13.3163Z" fill="#102442"/>
</svg>
